<?xml version="1.0" encoding="UTF-8"?>
<!DOCTYPE svg PUBLIC "-//W3C//DTD SVG 1.1//EN" "http://www.w3.org/Graphics/SVG/1.1/DTD/svg11.dtd">
<!-- Creator: CorelDRAW X5 -->
<svg xmlns="http://www.w3.org/2000/svg" xml:space="preserve" width="50mm" height="50mm" style="shape-rendering:geometricPrecision; text-rendering:geometricPrecision; image-rendering:optimizeQuality; fill-rule:evenodd; clip-rule:evenodd"
viewBox="0 0 5000 5000"
 xmlns:xlink="http://www.w3.org/1999/xlink">
 <defs>
  <style type="text/css">
   <![CDATA[
    .fil1 {fill:#AC6249}
    .fil0 {fill:#F9BE12}
   ]]>
  </style>
 </defs>
 <g id="Layer_x0020_1">
  <metadata id="CorelCorpID_0Corel-Layer"/>
  <path class="fil0" d="M2817 525c208,33 406,98 588,191 61,-30 165,-91 184,-89 11,1 48,26 89,55 -16,-54 -7,-114 29,-163 61,-84 179,-103 263,-42 84,61 103,179 42,263 -36,49 -90,76 -146,77 41,31 76,58 80,68 7,18 -18,135 -28,203l-1 -1c146,146 269,315 364,500 67,12 187,24 201,36 8,7 23,49 40,97 19,-53 61,-96 119,-115 99,-32 205,22 237,121 32,99 -22,205 -121,237 -57,19 -117,8 -164,-23 15,48 27,92 25,102 -4,19 -94,99 -142,148l0 0c16,101 24,204 24,309 0,105 -8,208 -24,309l0 0c47,49 137,129 142,148 2,10 -10,54 -25,102 46,-31 106,-42 164,-23 99,32 153,138 121,237 -32,99 -138,153 -237,121 -57,-19 -100,-62 -119,-115 -16,48 -32,90 -40,97 -14,12 -134,24 -201,36 -95,185 -218,354 -364,500l1 -1c9,68 35,185 28,203 -4,10 -40,37 -80,68 56,2 111,29 146,77 61,84 42,202 -42,263 -84,61 -202,42 -263,-42 -36,-49 -44,-109 -29,-163 -42,29 -79,54 -89,55 -19,2 -123,-59 -184,-89l0 0c-182,92 -379,158 -588,191l0 0c-32,60 -80,171 -97,180 -9,5 -54,7 -105,8 44,34 73,88 73,149 0,104 -84,188 -188,188 -104,0 -188,-84 -188,-188 0,-60 28,-114 73,-149 -51,-1 -96,-2 -105,-8 -16,-10 -65,-120 -97,-180l0 0c-208,-33 -406,-99 -588,-191l0 0c-61,30 -165,91 -184,89 -11,-1 -48,-26 -89,-55 16,54 7,114 -29,163 -61,84 -179,103 -263,42 -84,-61 -103,-179 -42,-263 36,-49 90,-76 146,-77 -41,-31 -76,-58 -80,-68 -7,-18 18,-135 28,-203l1 1c-146,-146 -269,-315 -364,-500 -67,-12 -187,-24 -201,-36 -8,-7 -23,-49 -40,-97 -19,53 -61,96 -119,115 -99,32 -205,-22 -237,-121 -32,-99 22,-205 121,-237 57,-19 117,-8 164,23 -15,-48 -27,-92 -25,-102 4,-19 94,-99 142,-148l0 0c-16,-101 -24,-204 -24,-309 0,-105 8,-208 24,-309l0 0c-47,-49 -137,-129 -142,-148 -2,-10 10,-54 25,-102 -46,31 -106,42 -164,23 -99,-32 -153,-138 -121,-237 32,-99 138,-153 237,-121 57,19 100,62 119,115 16,-48 32,-90 40,-97 14,-12 134,-24 201,-36 95,-185 219,-354 364,-500l-1 1c-9,-68 -35,-185 -28,-203 4,-10 40,-37 80,-68 -56,-2 -111,-29 -146,-77 -61,-84 -42,-202 42,-263 84,-61 202,-42 263,42 36,49 44,109 29,163 42,-29 79,-54 89,-55 19,-2 123,59 184,89 182,-92 379,-158 588,-191l0 0c32,-60 80,-171 97,-180 9,-5 54,-7 105,-8 -44,-34 -73,-88 -73,-149 0,-104 84,-188 188,-188 104,0 188,84 188,188 0,60 -28,114 -73,149 51,1 96,2 105,8 16,10 65,120 97,180l0 0z"/>
  <circle class="fil1" cx="2500" cy="2500" r="1671"/>
  <path class="fil0" d="M2250 3426c132,-118 115,-271 62,-462 -77,-276 22,-309 48,-599 47,-523 -126,-436 -150,-849 -189,240 12,563 -63,746 -45,-122 -25,-288 -132,-410 37,204 -115,337 5,591 132,281 276,575 194,817 -68,-191 -207,-358 -416,-329 -285,39 -351,252 -492,369 118,142 91,354 333,447 222,85 478,21 569,-233 30,63 31,171 66,244 35,73 94,109 116,39 -102,-103 -77,-244 -140,-371z"/>
  <path class="fil0" d="M2750 3426c-132,-118 -115,-271 -62,-462 77,-276 -22,-309 -48,-599 -47,-523 126,-436 150,-849 189,240 -12,563 63,746 45,-122 25,-288 132,-410 -37,204 115,337 -5,591 -132,281 -276,575 -194,817 68,-191 207,-358 416,-329 285,39 351,252 492,369 -118,142 -91,354 -333,447 -222,85 -478,21 -569,-233 -30,63 -31,171 -66,244 -35,73 -94,109 -116,39 102,-103 77,-244 140,-371z"/>
  <polygon class="fil0" points="2500,1063 2559,1246 2751,1245 2595,1358 2655,1540 2500,1427 2345,1540 2405,1358 2249,1245 2441,1246 "/>
 </g>
</svg>
